<?xml version="1.0" encoding="utf-8"?>
<!-- Generator: Adobe Illustrator 22.0.1, SVG Export Plug-In . SVG Version: 6.00 Build 0)  -->
<svg version="1.1" id="Layer_1" xmlns="http://www.w3.org/2000/svg" xmlns:xlink="http://www.w3.org/1999/xlink" x="0px" y="0px"
	 viewBox="0 0 24 30" style="enable-background:new 0 0 24 30;" xml:space="preserve">
<title>message, chat, bubble</title>
<path d="M8.5,22c-0.1,0-0.1,0-0.2,0C8.1,21.9,8,21.7,8,21.5v-3c-4.8-1.3-8-4.6-8-8.5c0-5,5.4-9,12-9s12,4,12,9c0,4.8-5,8.7-11.3,9
	l-3.9,2.9C8.7,22,8.6,22,8.5,22z M12,2C5.9,2,1,5.6,1,10c0,3.5,3.1,6.5,7.6,7.6c0.2,0,0.4,0.3,0.4,0.5v2.4l3.2-2.4
	c0.1-0.1,0.2-0.1,0.3-0.1c5.9-0.2,10.5-3.7,10.5-8S18.1,2,12,2z"/>
</svg>
