<svg xmlns="http://www.w3.org/2000/svg" data-name="Layer 1" viewBox="0 0 100 125" x="0px" y="0px"><title>icons_books_3</title><path d="M93,15l-1.67-.48a44.11,44.11,0,0,0-39,7.37l-2.08,1.6-2.08-1.6a44.11,44.11,0,0,0-39-7.37L7.54,15V27.4H3V82.5H97.36V27.4H93ZM51.25,62.44a4.51,4.51,0,0,1,3.51,4.39h2a6.51,6.51,0,0,0-5.51-6.42V48.31a4.51,4.51,0,0,1,3.51,4.39h2a6.51,6.51,0,0,0-5.51-6.42V34.18a4.51,4.51,0,0,1,3.51,4.39h2a6.51,6.51,0,0,0-5.51-6.42V25.29l2.3-1.77a42.08,42.08,0,0,1,37.18-7l.23.07v50.2a44.09,44.09,0,0,0-38,7.07l-1.73,1.28ZM9.54,16.54l.23-.07a42.09,42.09,0,0,1,37.18,7l2.3,1.77v6.86a6.51,6.51,0,0,0-5.51,6.42h2a4.51,4.51,0,0,1,3.51-4.39v12.1a6.51,6.51,0,0,0-5.51,6.42h2a4.51,4.51,0,0,1,3.51-4.39v12.1a6.51,6.51,0,0,0-5.51,6.42h2a4.51,4.51,0,0,1,3.51-4.39V75.09l-1.73-1.28a44.07,44.07,0,0,0-38-7.07ZM95.36,29.4V80.5H5V29.4H7.54v40l1.3-.4a42.06,42.06,0,0,1,37.5,6.38l2.92,2.17,1,.74,1-.74,2.92-2.17A42.06,42.06,0,0,1,91.67,69l1.3.4v-40Z"/><text x="0" y="115" fill="#000000" font-size="5px" font-weight="bold" font-family="'Helvetica Neue', Helvetica, Arial-Unicode, Arial, Sans-serif">Created by Iconic</text><text x="0" y="120" fill="#000000" font-size="5px" font-weight="bold" font-family="'Helvetica Neue', Helvetica, Arial-Unicode, Arial, Sans-serif">from the Noun Project</text></svg>